HIERARCHY
ROOT joint_Root
{
	OFFSET 0.0 0.0 0.0
	CHANNELS 6 Xposition Yposition Zposition Zrotation Xrotation Yrotation 
	JOINT Hips
	{
		OFFSET -17.1583 93.1646 452.98
		CHANNELS 6 Xposition Yposition Zposition Zrotation Xrotation Yrotation 
		JOINT Spine
		{
			OFFSET 15.7357 0.0 0.0
			CHANNELS 6 Xposition Yposition Zposition Zrotation Xrotation Yrotation 
			JOINT Chest
			{
				OFFSET 8.98455 -0.406207 0.0
				CHANNELS 6 Xposition Yposition Zposition Zrotation Xrotation Yrotation 
				JOINT Neck
				{
					OFFSET 16.3773 0.0 0.0
					CHANNELS 6 Xposition Yposition Zposition Zrotation Xrotation Yrotation 
					JOINT Head
					{
						OFFSET 6.45672 0.0 0.0
						CHANNELS 6 Xposition Yposition Zposition Zrotation Xrotation Yrotation 
						End Site
						{
							OFFSET 0.0 0.0 0.0
						}
					}
				}
				JOINT Shoulder_L
				{
					OFFSET 12.9942 -0.242716 4.98039
					CHANNELS 6 Xposition Yposition Zposition Zrotation Xrotation Yrotation 
					JOINT UpperArm_L
					{
						OFFSET 5.34809 0.0 0.0
						CHANNELS 6 Xposition Yposition Zposition Zrotation Xrotation Yrotation 
						JOINT LowerArm_L
						{
							OFFSET 24.3286 1.87007e-05 0.0
							CHANNELS 6 Xposition Yposition Zposition Zrotation Xrotation Yrotation 
							JOINT Hand_L
							{
								OFFSET 22.2916 0.0 0.0
								CHANNELS 6 Xposition Yposition Zposition Zrotation Xrotation Yrotation 
								End Site
								{
									OFFSET 0.0 0.0 0.0
								}
							}
						}
					}
				}
				JOINT Shoulder_R
				{
					OFFSET 12.9945 -0.242716 -4.98039
					CHANNELS 6 Xposition Yposition Zposition Zrotation Xrotation Yrotation 
					JOINT UpperArm_R
					{
						OFFSET -5.34813 0.0 0.0
						CHANNELS 6 Xposition Yposition Zposition Zrotation Xrotation Yrotation 
						JOINT LowerArm_R
						{
							OFFSET -24.3289 0.000322201 0.0
							CHANNELS 6 Xposition Yposition Zposition Zrotation Xrotation Yrotation 
							JOINT Hand_R
							{
								OFFSET -22.2915 -0.000108084 0.0
								CHANNELS 6 Xposition Yposition Zposition Zrotation Xrotation Yrotation 
								End Site
								{
									OFFSET 0.0 0.0 0.0
								}
							}
						}
					}
				}
			}
		}
		JOINT UpperLeg_L
		{
			OFFSET -2.19248 -6.46944 0.0
			CHANNELS 6 Xposition Yposition Zposition Zrotation Xrotation Yrotation 
			JOINT LowerLeg_L
			{
				OFFSET 39.0811 0.0 -1.23785e-05
				CHANNELS 6 Xposition Yposition Zposition Zrotation Xrotation Yrotation 
				JOINT Foot_L
				{
					OFFSET 40.9854 0.0 -1.26872e-05
					CHANNELS 6 Xposition Yposition Zposition Zrotation Xrotation Yrotation 
					JOINT Toes_L
					{
						OFFSET 11.7543 0.0 0.0
						CHANNELS 6 Xposition Yposition Zposition Zrotation Xrotation Yrotation 
						End Site
						{
							OFFSET 0.0 0.0 0.0
						}
					}
				}
			}
		}
		JOINT UpperLeg_R
		{
			OFFSET -2.19251 6.46944 0.0
			CHANNELS 6 Xposition Yposition Zposition Zrotation Xrotation Yrotation 
			JOINT LowerLeg_R
			{
				OFFSET -39.0811 -0.00228153 -0.0401928
				CHANNELS 6 Xposition Yposition Zposition Zrotation Xrotation Yrotation 
				JOINT Foot_R
				{
					OFFSET -40.9854 0.0 0.0
					CHANNELS 6 Xposition Yposition Zposition Zrotation Xrotation Yrotation 
					JOINT Toes_R
					{
						OFFSET -11.7543 0.0 0.0
						CHANNELS 6 Xposition Yposition Zposition Zrotation Xrotation Yrotation 
						End Site
						{
							OFFSET 0.0 0.0 0.0
						}
					}
				}
			}
		}
	}
}
MOTION
Frames:	6
Frame Time:	0.0333333
0.000000 0.000000 0.000000 0.000000 0.000000 -0.000000 -4.013500 92.527300 2.205750 88.044700 1.558750 5.575940 15.735700 0.000005 -0.000001 80.314600 86.834000 -78.549900 8.984550 -0.406207 -0.000000 -1.503250 -1.207740 3.512620 16.377300 -0.000001 -0.000001 7.438080 0.973697 -2.844170 6.456720 -0.000001 -0.000000 7.285770 1.797240 0.987621 12.994200 -0.242716 4.980390 -92.799200 8.180640 -71.036900 5.348090 -0.000007 -0.000001 -74.903200 22.893800 3.391800 24.328600 0.000019 0.000005 11.198000 25.793000 -24.464200 22.291600 -0.000001 0.000005 -2.495620 4.983570 7.666970 12.994500 -0.242716 -4.980390 88.668700 4.252780 -72.599400 -5.348130 -0.000001 -0.000004 -72.817100 26.501300 -4.481380 -24.328900 0.000322 -0.000009 0.395038 2.151410 -10.434600 -22.291500 -0.000108 -0.000004 -11.499500 5.149860 3.946870 -2.192480 -6.469440 -0.000000 -170.646000 -5.941190 4.120340 39.081100 -0.000007 -0.000012 0.005461 -0.018106 16.785000 40.985400 -0.000006 -0.000013 -2.202150 15.074000 -69.585500 11.754300 -0.000000 0.000003 -0.001591 0.191100 -8.824180 -2.192510 6.469440 -0.000001 179.741000 6.557090 -174.565000 -39.081100 -0.002282 -0.040193 0.086385 -0.287586 16.109100 -40.985400 0.000008 0.000006 -1.023800 3.497530 -72.021700 -11.754300 -0.000006 -0.000006 -0.010333 0.273775 -5.449970
0.000000 0.000000 0.000000 0.000000 0.000000 -0.000000 -3.895610 92.545300 2.165120 88.063700 1.533600 5.383510 15.735700 0.000005 -0.000001 78.303000 86.827000 -76.639600 8.984550 -0.406207 -0.000000 -1.529160 -1.421130 3.306950 16.377300 -0.000001 -0.000001 7.154470 1.107640 -3.119220 6.456720 -0.000001 -0.000000 6.974820 2.051170 0.261401 12.994200 -0.242716 4.980390 -92.791900 8.176960 -71.074600 5.348090 -0.000007 -0.000001 -74.808800 22.373700 3.638570 24.328600 0.000019 0.000005 11.262300 25.592800 -24.749100 22.291600 -0.000001 0.000005 -2.536750 4.988710 7.558520 12.994500 -0.242716 -4.980390 88.634300 4.243160 -72.140400 -5.348130 -0.000001 -0.000004 -71.800600 22.390400 -5.714590 -24.328900 0.000322 -0.000009 0.497821 3.115040 -9.105430 -22.291500 -0.000108 -0.000004 -13.173400 5.142900 4.112880 -2.192480 -6.469440 -0.000000 -170.758000 -6.156510 3.898540 39.081100 -0.000007 -0.000012 0.008771 -0.029045 16.803900 40.985400 -0.000006 -0.000013 -2.088050 15.179800 -69.592900 11.754300 -0.000000 0.000003 -0.001445 0.189161 -8.903010 -2.192510 6.469440 -0.000001 179.588000 6.740560 -174.743000 -39.081100 -0.002282 -0.040193 0.083327 -0.278382 16.033200 -40.985400 0.000008 0.000006 -1.204430 3.797780 -71.912500 -11.754300 -0.000006 -0.000006 -0.010052 0.271695 -5.535030
0.000000 0.000000 0.000000 0.000000 0.000000 -0.000000 -3.756080 92.592600 2.115750 88.067200 1.549110 5.066330 15.735700 0.000005 -0.000001 74.974300 86.843800 -73.438300 8.984550 -0.406207 -0.000000 -1.644200 -1.762200 3.045950 16.377300 -0.000001 -0.000001 6.887660 1.237770 -3.430480 6.456720 -0.000001 -0.000000 6.584940 2.340950 -0.811590 12.994200 -0.242716 4.980390 -92.775100 8.215810 -71.263200 5.348090 -0.000007 -0.000001 -74.668000 21.600800 4.156200 24.328600 0.000019 0.000005 11.380000 25.241400 -25.266700 22.291600 -0.000001 0.000005 -2.611510 4.988650 7.559880 12.994500 -0.242716 -4.980390 88.555300 4.334320 -71.545800 -5.348130 -0.000001 -0.000004 -70.091800 16.785100 -7.476310 -24.328900 0.000322 -0.000009 0.589148 4.642890 -7.254230 -22.291500 -0.000108 -0.000004 -14.743700 5.140900 4.160350 -2.192480 -6.469440 -0.000000 -170.875000 -6.287590 3.669710 39.081100 -0.000007 -0.000012 0.011494 -0.038644 16.565300 40.985400 -0.000006 -0.000013 -2.013820 15.281000 -69.522200 11.754300 -0.000000 0.000003 -0.001612 0.191380 -8.812810 -2.192510 6.469440 -0.000001 179.397000 7.039880 -174.954000 -39.081100 -0.002282 -0.040193 0.072458 -0.245223 15.743200 -40.985400 0.000008 0.000006 -1.640460 4.248450 -71.631500 -11.754300 -0.000006 -0.000006 -0.010362 0.273988 -5.441240
0.000000 0.000000 0.000000 0.000000 0.000000 -0.000000 -3.587890 92.624300 2.075770 88.050000 1.420810 4.790040 15.735700 0.000005 -0.000001 71.590700 86.817100 -70.215000 8.984550 -0.406207 -0.000000 -1.699320 -2.123480 2.719440 16.377300 -0.000001 -0.000001 6.561640 1.384060 -3.833130 6.456720 -0.000001 -0.000000 6.105110 2.670170 -2.322460 12.994200 -0.242716 4.980390 -92.763700 8.284280 -71.477600 5.348090 -0.000007 -0.000001 -74.429800 20.946700 4.805680 24.328600 0.000019 0.000005 11.416100 24.651600 -25.832700 22.291600 -0.000001 0.000005 -2.659910 4.993480 7.457750 12.994500 -0.242716 -4.980390 88.531000 4.301600 -71.125000 -5.348130 -0.000001 -0.000004 -67.544200 11.435700 -9.895210 -24.328900 0.000322 -0.000009 0.501172 5.687190 -5.055550 -22.291500 -0.000108 -0.000004 -16.034600 5.122620 4.590980 -2.192480 -6.469440 -0.000000 -170.970000 -6.635020 3.428270 39.081100 -0.000007 -0.000012 0.014237 -0.048040 16.507800 40.985400 -0.000006 -0.000013 -1.885420 15.394400 -69.526200 11.754300 -0.000000 0.000003 -0.001576 0.190899 -8.832330 -2.192510 6.469440 -0.000001 179.245000 7.135870 -175.165000 -39.081100 -0.002282 -0.040193 0.063937 -0.218237 15.520800 -40.985400 0.000008 0.000006 -2.047250 4.607270 -71.294600 -11.754300 -0.000006 -0.000006 -0.009642 0.268614 -5.661060
0.000000 0.000000 0.000000 0.000000 0.000000 -0.000000 -3.379980 92.657900 2.058070 87.962300 1.157750 4.602190 15.735700 0.000005 -0.000001 69.731600 86.785600 -68.574000 8.984550 -0.406207 -0.000000 -1.711270 -2.322220 2.280130 16.377300 -0.000001 -0.000001 6.158430 1.406280 -4.281470 6.456720 -0.000001 -0.000000 5.603270 2.723110 -3.987290 12.994200 -0.242716 4.980390 -92.778500 8.418770 -71.660200 5.348090 -0.000007 -0.000001 -73.870400 21.039800 5.269900 24.328600 0.000019 0.000005 11.570100 24.498300 -26.276100 22.291600 -0.000001 0.000005 -2.861490 5.004520 7.223230 12.994500 -0.242716 -4.980390 88.564400 4.092000 -70.648400 -5.348130 -0.000001 -0.000004 -63.939300 7.126570 -12.661800 -24.328900 0.000322 -0.000009 0.364041 6.878460 -3.046540 -22.291500 -0.000108 -0.000004 -17.007100 5.119750 4.657070 -2.192480 -6.469440 -0.000000 -171.000000 -7.057110 3.315580 39.081100 -0.000007 -0.000012 0.017366 -0.058672 16.488600 40.985400 -0.000006 -0.000013 -1.730530 15.462600 -69.653100 11.754300 -0.000000 0.000003 -0.001672 0.192160 -8.781080 -2.192510 6.469440 -0.000001 179.082000 7.369890 -175.209000 -39.081100 -0.002282 -0.040193 0.053778 -0.186076 15.169100 -40.985400 0.000008 0.000006 -2.371530 5.182310 -71.026000 -11.754300 -0.000006 -0.000006 -0.009997 0.271279 -5.552040
0.000000 0.000000 0.000000 0.000000 0.000000 -0.000000 -3.140180 92.665300 2.107770 87.857400 0.862745 4.436040 15.735700 0.000005 -0.000001 69.297600 86.793500 -68.516100 8.984550 -0.406207 -0.000000 -1.751100 -2.331470 1.527200 16.377300 -0.000001 -0.000001 5.669020 1.364050 -4.725300 6.456720 -0.000001 -0.000000 5.200480 2.596520 -5.206620 12.994200 -0.242716 4.980390 -92.750000 8.386110 -71.770900 5.348090 -0.000007 -0.000001 -73.119900 20.897800 5.485460 24.328600 0.000019 0.000005 11.771200 24.592300 -26.598700 22.291600 -0.000001 0.000005 -3.138510 5.011200 7.080420 12.994500 -0.242716 -4.980390 88.687900 3.666240 -70.292800 -5.348130 -0.000001 -0.000004 -59.686600 2.138640 -15.455800 -24.328900 0.000322 -0.000009 0.109241 8.135770 -0.779863 -22.291500 -0.000108 -0.000004 -18.013500 5.124520 4.546750 -2.192480 -6.469440 -0.000000 -171.024000 -7.501790 3.175330 39.081100 -0.000007 -0.000012 0.019525 -0.065323 16.641300 40.985400 -0.000006 -0.000013 -1.518150 15.545200 -69.768000 11.754300 -0.000000 0.000003 -0.001635 0.191683 -8.800450 -2.192510 6.469440 -0.000001 178.898000 7.624580 -175.252000 -39.081100 -0.002282 -0.040193 0.046036 -0.160025 14.942200 -40.985400 0.000008 0.000006 -2.798570 5.901260 -70.690600 -11.754300 -0.000006 -0.000006 -0.009389 0.266685 -5.739910
